<?xml version="1.0" encoding="UTF-8"?>
<svg xmlns="http://www.w3.org/2000/svg" viewBox="-5 -5 330 365">
  <defs>
    <style>
      .st0{stroke:#204f3a;stroke-width:5px;stroke-miterlimit:10;fill:#f3efe7}
      .st1{fill:none;stroke:#a75b2d;stroke-width:2px;stroke-miterlimit:10}
      .st2{fill:#f3efe7}
      .st3{fill:#204f3a}
      .st4{fill:#306850}
      .st5{fill:#fff}
      .st6{fill:#a75b2d}
    </style>
  </defs>
  <path class="st2" d="M236.2,105.9c-9.2,0-132.8-19.5-136.8-8.8-4.1,10.7-27.4,0-27.4,0,0,0-17.8,80.7-23.9,94.3-6.1,13.6-17.2,88.8-17.2,88.8l1.2,9.9,67.3,60.7h61.9s117.1-32.8,117.1-32.8l29.8-45.1,6.3-21.8-16.2-79.7-62.1-65.4Z"/>
  <path class="st3" d="M96.8,0h-25.8S63.2,60.9,0,70.2v46.8h28.1s.2,161.9,2.7,163.1c9.5-1.7,27.7-6.1,68.6-6.6-.6-38.1-2.6-273.5-2.6-273.5Z"/>
  <path class="st3" d="M32.1,290.1s13.2,54.6,67.3,60.7c11-5.5,81.7-44.1,104.8-50.8-12.1-5-80.6-29.8-172.2-9.9Z"/>
  <path class="st3" d="M311.2,261.3c1,.4-21.4,106-149.9,89.5,7.5-9.7,27.6-26.1,71.6-53.7-8.2-3.7-55.1-20.1-81.3-16.9,11.9-6.2,72.4-43.5,159.6-18.9Z"/>
  <path class="st3" d="M96.3,70.2h99.2s147,8.2,119,180.8c-9.3-3.5-49.8-17.5-114.3,0h-102.7l-1.2-180.8Z"/>
  <path class="st4" d="M163.5,276.6s48.3,5.9,73,17.9c26,0,37.3-28.4,72.1-30.7-16.2-4.5-77.2-20.8-145.1,12.8Z"/>
  <path class="st4" d="M172.9,307.3s10-2.8,21.4-8.1c0,0-91.3-25.5-157.6-5.4,0,0,109.5-11.8,136.2,13.5Z"/>
  <path class="st4" d="M158.9,315.6s9.4-3.8,11.6-5.9c0,0-26.6-23.9-131.7-13.9,0,0,88.6,3.3,120.1,19.8Z"/>
  <path class="st2" d="M96.3,185.4v-69.2h31.6v21.4s-.9,9.4-11.1,18.8c-6.8,10.3-20.5,29.1-20.5,29.1Z"/>
  <rect class="st2" x="94.2" y="268.4" width="9.3" height="6.8"/>
  <rect class="st2" x="190.6" y="237" width="20.6" height="15.6"/>
  <polygon class="st3" points="218.2 246.5 211.2 247.5 211.2 239.1 219.6 239.1 218.2 246.5"/>
  <path class="st0" d="M91.7,272.8v-84.7s3.1-21.3,25.8-41.9c.6-5.6,3.1-53.8,12.6-94.4,0,0-5.7-8.1,0-16.9,0,0-8.8-13.1,3.1-16.3h39.1c11.9,3.1,3.1,16.3,3.1,16.3,5.7,8.8,0,16.9,0,16.9,9.4,40.6,11.9,88.8,12.6,94.4,22.6,20.6,25.8,41.9,25.8,41.9v57.9"/>
  <path class="st6" d="M240.4,149.9c-4.7,2.8-7,6.1-11.1,9.1-2.7,1.9-9,4-11.8,1.5-2.9-2.7-6.5-2.9-9.2-4.9-4.6-3.4-4.7-11.5-2.7-16.3s3.4-6.8,5-9.7c3.5,8.7,5.3,16.3,2.5,25.1,3.7.6,4.6-3,7.4-4.6,4.6-2.7,15.4-1.8,19.9,0Z"/>
  <path class="st6" d="M253.5,98.1c1.6,1.3,1.8,2.2,1.7,4.5,2-2.9,5.5-3.7,7.8-6.5,3.8-4.5,6.1-10.3,6.8-16.4-2.9-1.5-5,1.5-7.3,2.2-3.9,1.2-5.4,3.8-7.9,6.9-2.1,2.5-5,6.1-1.2,9.3ZM241.9,110.4c5.6-1.9,8-9.6,5.8-14.4-1-2.1-.3-4.2-1.4-5.8-1.6-2.3-2.8-4.1-2.8-6.8l-2.9,7.5c-1.9,5-4.1,10.1-1.9,15.1s.4,5.3,3.2,4.3ZM232.3,98.1c-.2,3.4-2.3,5.5-4,8.5-3.7,6.2-.9,17.5,2.2,17.9,9.5,1.1,6.6-19.8,1.9-26.4ZM268.4,105.7c-9.3-4.9-19.3-.8-22.5,8.6,10.3,5.4,18.8-1.4,22.5-8.6ZM254,126.2c2.5-1.2,3.2-4.1,4-6.2-7.6-3.7-21.6-.7-22,8.9,12.5,4,8.5,1.8,18-2.7ZM219.4,140.5c7-.6,5.5-12.6,4.8-15.9l-2.4-10c-7.5,6.1-10.1,19.2-2.4,25.9ZM243.5,140.4c2.2-1.5,3.9-3.3,6.2-5.6-8.8-1.7-23.3-2-24.2,9.1,10.3,2.5,8.6,2.9,18-3.5ZM240.4,149.9c-4.5-1.7-15.3-2.6-19.9,0-2.8,1.6-3.7,5.2-7.4,4.6,2.8-8.8,1.1-16.4-2.5-25.1-1.6,3-3.4,5.8-5,9.7s-1.9,12.9,2.7,16.3c2.7,2,6.3,2.2,9.2,4.9,2.8,2.5,9.1.4,11.8-1.5,4.1-2.9,6.3-6.2,11.1-9.1Z"/>
  <path class="st6" d="M253.5,98.1c-3.8-3.1-.9-6.8,1.2-9.3,2.6-3.1,4-5.6,7.9-6.9,2.3-.7,4.4-3.7,7.3-2.2-.7,6.1-3.1,11.9-6.8,16.4s-5.8,3.5-7.8,6.5c0-2.3-.2-3.2-1.7-4.5Z"/>
  <path class="st6" d="M241.9,110.4c-2.8,1-2.6-3.1-3.2-4.3-2.2-5,0-10.2,1.9-15.1l2.9-7.5c0,2.6,1.3,4.5,2.8,6.8,1.1,1.6.4,3.8,1.4,5.8,2.2,4.7-.2,12.4-5.8,14.4Z"/>
  <path class="st6" d="M232.3,98.1c4.7,6.6,7.6,27.5-1.9,26.4-3.1-.4-5.9-11.7-2.2-17.9,1.8-3,3.9-5.1,4-8.5Z"/>
  <path class="st6" d="M219.4,140.5c-7.7-6.7-5.1-19.8,2.4-25.9l2.4,10c.8,3.2,2.2,15.2-4.8,15.9Z"/>
  <path class="st6" d="M268.4,105.7c-3.7,7.2-12.2,14-22.5,8.6,3.2-9.4,13.2-13.6,22.5-8.6Z"/>
  <path class="st6" d="M254,126.2c-9.5,4.5-5.5,6.7-18,2.7.4-9.5,14.4-12.5,22-8.9-.8,2-1.5,5-4,6.2Z"/>
  <path class="st6" d="M243.5,140.4c-9.4,6.4-7.6,6-18,3.5.9-11,15.4-10.8,24.2-9.1-2.3,2.3-4,4.1-6.2,5.6Z"/>
  <path class="st1" d="M211.4,157.5s-4.9,9.9-24.6,26.8"/>
  <path class="st6" d="M192.9,201.4c2.9,5.5,1.1,19.1-4.2,24.8-15.5-.8-25.5-19.3-19.5-31.3l23.7,6.5Z"/>
  <path class="st6" d="M168.3,191.7c-2.1,5-8,14.3-14.7,15.8-8.9,2-14.1-11.1-17.8-15.9-8.2,3.4-17.6,6.8-25.6,6.9.4-23.7,18.6-34.8,37.5-40.2l5.3-17.5,4.6,17.7c20,4.7,36.6,16.1,37.8,40.4-9-.9-18.3-3.7-27.2-7.2Z"/>
  <path class="st6" d="M163.9,229.8c-2.9,3-7.4,6.7-10.1,7.2-3.2.6-8.6-3.5-11.8-6.3-6.9-6.1-7-20.7.7-23.1,6.2,3.1,12.8,5.8,19.2-.2,6.9,2.7,9.2,15.1,1.9,22.4Z"/>
  <path class="st6" d="M115.8,227.5l-5.5-24.6,24.8-8.3c5.6,14.8-2.7,28.4-19.4,32.8Z"/>
  <path class="st6" d="M167.7,252.9l-15.1,13.3c-4.5-4.1-10-9.1-12.9-13.4s3.9-13.7,5.5-14.6c6.5,2.4,8.7,2.6,15.3-.2l7.1,14.8Z"/>
  <path class="st6" d="M184.2,231c-.3,7.6-6.3,15.1-13.1,18.5-3-2.3-7.7-9.7-8.1-13.3s4.2-8.6,7.9-12.8c2.8-3.2,13.5,2.9,13.3,7.6Z"/>
  <path class="st6" d="M132.6,249.3c-4.3-2-10.4-11.1-11.8-16.1s3.7-8.1,6-9.2,7.5-.7,9,1.2c3.4,4.4,6.3,9.9,6.4,13.3,0,3.4-6.1,11-9.6,10.8Z"/>
</svg>
